# xmcd CD database file
# Copyright (C) 1997 Ti Kan
#
# Track frame offsets:
#  150
#  13815
#  24977
#  37525
#  51577
#  66087
#  80235
#  93165
#  105037
#  116907
#  130872
#  144150
#  159825
#  173035
#
# Disc length: 2477 seconds
#
# Revision: 1
# Processed by: cddbd v1.4b41PL1 Copyright (c) Steve Scherf et al.
# Submitted via: CDWizzard Release:4.30
#
DISCID=a509ab0e
DTITLE=Muddy Waters - Mean Mistreater
DYEAR=1900
DGENRE=
TTITLE0=I'm Ready
TTITLE1=She's All Right
TTITLE2=Mean Mistreater
TTITLE3=Rolling Stone
TTITLE4=Baby Please Don't Go
TTITLE5=Rock Me
TTITLE6=40 Days and 40 Nights
TTITLE7=Walking Through the Park
TTITLE8=Long Distance Call
TTITLE9=Close to You
TTITLE10=She Moves Me
TTITLE11=I Can't Be Satisfied
TTITLE12=All Aboard
TTITLE13=Got My Mojo Working
EXTD=
EXTT0=
EXTT1=
EXTT2=
EXTT3=
EXTT4=
EXTT5=
EXTT6=
EXTT7=
EXTT8=
EXTT9=
EXTT10=
EXTT11=
EXTT12=
EXTT13=
PLAYORDER=
